<svg xmlns="http://www.w4.org/2000/svg" xml:space="preserve" viewBox="0 0 24 24"><path d="M20.6 19c-.5-.4-.3-1.4-.9-1.9.6-3.4-1-6.3-2.8-8.2-1.6-1.6-1.1-3.1-1.1-4.5 0-2.1-.9-4.4-3.6-4.4-2.8 0-3.6 2.4-3.6 3.7-.1 3.3.6 4.1-1.3 6.5-2.2 2.8-2.6 5.6-2.1 7.1-.3.4-.7.7-1.2.8-1.7.7-.4 1.9-.9 2.8 0 .2-.1.5-.1.7 0 .8.6 1.4 1.7 1.3 1.5-.1 2.8.9 3.7.9.8 0 1.4-.4 1.7-1 1.4-.3 3.1-.3 4.5.1.2.7.9 1.1 1.7 1.1 1.6 0 1.9-1.8 3.8-2.5.7-.2 1-.9 1-1.5-.1-.4-.2-.7-.5-1zM11.4 8.6c-.3 0-.6-.3-1-.6-.5-.4-1-.6-1-1 0-.3.4-.4.9-.7.5-.3.7-.7 1.2-.7s.7.3 1.4.6 1.2.4 1.2.8-.7.6-1.2.9c-.6.3-.9.7-1.5.7zm1.7-5.2c.9.1 1 1.7.6 2.5l-.4-.1c.2-.5.2-1.4-.4-1.5-.4 0-.6.5-.7.9-.2-.2-.4-.2-.6-.2.1-.9.7-1.8 1.5-1.6zm-3.4.3c.7-.2 1.1.6 1.1 1.4l-.3.2c0-.3-.2-.9-.6-.8-.4.2-.4 1.1-.1 1.3l-.3.2c-.5-.7-.5-2.1.2-2.3zM7.6 22.9c-2-.9-2.6-.7-3-.7-.8 0-1-.6-.7-1.1.2-.5.2-1 .1-1.3-.1-.6-.1-.8.5-1.1.8-.3 1.2-.8 1.4-1.1.8-.9 1.5.5 2.1 1.9.4.9 1.2 1.3 1.5 2.2.2.9-.7 1.8-1.9 1.2zm7-1.8c-1.4.7-3.1 1-4.5.3-.2-.6-.5-.9-.8-1.3.5-.1.9-.8.5-1.5-.5-.7-1.6-1.2-2.6-2s-1.3-2.6 0-4.7c-.7 1.9-.3 3.6.1 4.1.1-1 .1-2.6 1.5-4.6.7-1 .7-2.3.7-3.1l.5.2c.5.3.8.7 1.4.7.8 0 1.3-.5 1.9-.9.2-.1.6-.3.9-.5.5 2.5 2.7 5.5 2.8 7.2.5-1-.1-3.5-.1-3.5.8 1.3.9 2.4.9 3.7.6.2 1.2.9 1.3 1.7h-.2c-.1-.9-2.6-2.3-2.8-.5-1.2.2-.8 2.1-1 3.3-.2.5-.4.9-.5 1.4zm4.8-.1c-1 .4-1.6 1.2-2.1 1.7-.9 1-2 .5-2.2-.4-.1-1 .4-1.5.6-2.6.2-1 0-2.5.4-2.7.3 1.8 2.1 1 2.5.5.7 0 .7.2.9.8.1.4.2.7.6 1.1.4.6.2 1.3-.7 1.6zm-8-13c-.7 0-1.1-.4-1.5-.8-.2-.2.1-.5.3-.3.4.3.8.7 1.3.7.6 0 1.1-.5 1.9-.8.2-.1.4.3.1.4-.8.3-1.3.8-2.1.8z"/></svg>
